<?xml version="1.0" encoding="UTF-8" standalone="no"?>
<svg width="159px" height="68px" viewBox="0 0 159 68" version="1.1" xmlns="http://www.w3.org/2000/svg" xmlns:xlink="http://www.w3.org/1999/xlink">
    <!-- Generator: Sketch 43.1 (39012) - http://www.bohemiancoding.com/sketch -->
    <title>СТРЕЛКИ </title>
    <desc>Created with Sketch.</desc>
    <defs></defs>
    <g id="Page-1" stroke="none" stroke-width="1" fill="none" fill-rule="evenodd">
        <g id="landing-mobile" transform="translate(-90.000000, -2311.000000)" fill-rule="nonzero" fill="#4287E1">
            <g id="СТРЕЛКИ-" transform="translate(90.000000, 2311.000000)">
                <path d="M63.0298854,4.52988535 L58.0298854,4.52988535 L58.0298854,5.52988535 L63.0298854,5.52988535 L63.0298854,4.52988535 Z M53.0298854,4.52988535 L48.0298854,4.52988535 L48.0298854,5.52988535 L53.0298854,5.52988535 L53.0298854,4.52988535 Z M43.0298854,4.52988535 L38.0298854,4.52988535 L38.0298854,5.52988535 L43.0298854,5.52988535 L43.0298854,4.52988535 Z M36.7923938,9.29239383 L36.7923938,14.2923938 L37.7923938,14.2923938 L37.7923938,9.29239383 L36.7923938,9.29239383 Z M36.7923938,19.2923938 L36.7923938,24.2923938 L37.7923938,24.2923938 L37.7923938,19.2923938 L36.7923938,19.2923938 Z M36.7923938,29.2923938 L36.7923938,34.2923938 L37.7923938,34.2923938 L37.7923938,29.2923938 L36.7923938,29.2923938 Z M36.7923938,39.2923938 L36.7923938,44.2923938 L37.7923938,44.2923938 L37.7923938,39.2923938 L36.7923938,39.2923938 Z M36.7923938,49.2923938 L36.7923938,54.2923938 L37.7923938,54.2923938 L37.7923938,49.2923938 L36.7923938,49.2923938 Z M35.4030152,61.9030152 L35.4030152,62.9030152 L37.7923938,62.9030152 L37.7923938,59.2923938 L36.7923938,59.2923938 L36.7923938,61.9030152 L35.4030152,61.9030152 Z M30.4030152,61.9030152 L25.4030152,61.9030152 L25.4030152,62.9030152 L30.4030152,62.9030152 L30.4030152,61.9030152 Z M20.4030152,61.9030152 L15.4030152,61.9030152 L15.4030152,62.9030152 L20.4030152,62.9030152 L20.4030152,61.9030152 Z M10.4030152,61.9030152 L5.40301517,61.9030152 L5.40301517,62.9030152 L10.4030152,62.9030152 L10.4030152,61.9030152 Z M0.403015171,61.9030152 L-4.40301517,61.9030152 L-4.40301517,62.9030152 L0.403015171,62.9030152 L0.403015171,61.9030152 Z" id="Path-61-Copy" transform="translate(29.313435, 33.716450) rotate(-270.000000) translate(-29.313435, -33.716450) "></path>
                <path d="M95.5,5.62687018 L100.5,5.62687018 L100.5,4.62687018 L95.5,4.62687018 L95.5,5.62687018 Z M105.5,5.62687018 L110.5,5.62687018 L110.5,4.62687018 L105.5,4.62687018 L105.5,5.62687018 Z M115.5,5.62687018 L120.5,5.62687018 L120.5,4.62687018 L115.5,4.62687018 L115.5,5.62687018 Z M125.5,5.62687018 L130.5,5.62687018 L130.5,4.62687018 L125.5,4.62687018 L125.5,5.62687018 Z M135.737492,9.38937866 L136.737492,9.38937866 L136.737492,4.62687018 L135.5,4.62687018 L135.5,5.62687018 L135.737492,5.62687018 L135.737492,9.38937866 Z M135.737492,14.3893787 L135.737492,19.3893787 L136.737492,19.3893787 L136.737492,14.3893787 L135.737492,14.3893787 Z M135.737492,24.3893787 L135.737492,29.3893787 L136.737492,29.3893787 L136.737492,24.3893787 L135.737492,24.3893787 Z M135.737492,34.3893787 L135.737492,39.3893787 L136.737492,39.3893787 L136.737492,34.3893787 L135.737492,34.3893787 Z M135.737492,44.3893787 L135.737492,49.3893787 L136.737492,49.3893787 L136.737492,44.3893787 L135.737492,44.3893787 Z M135.737492,54.3893787 L135.737492,59.3893787 L136.737492,59.3893787 L136.737492,54.3893787 L135.737492,54.3893787 Z M138.12687,63 L143.12687,63 L143.12687,62 L138.12687,62 L138.12687,63 Z M148.12687,63 L153.12687,63 L153.12687,62 L148.12687,62 L148.12687,63 Z M158.12687,63 L163.12687,63 L163.12687,62 L158.12687,62 L158.12687,63 Z" id="Path-61-Copy" transform="translate(129.313435, 33.813435) rotate(-270.000000) translate(-129.313435, -33.813435) "></path>
                <polygon id="Path-62" points="72.6636352 57.5981879 71.964464 58.3131422 79.7315146 65.9087297 87.3530297 58.3097413 86.6469703 57.6015888 79.7247123 64.5033868"></polygon>
                <polygon id="Path-62-Copy" points="72.6636352 50.1203554 71.964464 50.8353097 79.7315146 58.4308972 87.3530297 50.8319088 86.6469703 50.1237562 79.7247123 57.0255543"></polygon>
                <polygon id="Path-62-Copy-2" points="72.6636352 42.6425228 71.964464 43.3574772 79.7315146 50.9530647 87.3530297 43.3540763 86.6469703 42.6459237 79.7247123 49.5477218"></polygon>
            </g>
        </g>
    </g>
</svg>