<svg xmlns="http://www.w3.org/2000/svg" width="123" height="24" viewBox="0 0 123 24"><path fill="#fff" d="M5.41 22.7H0V1.37h5.41zm2.73-6.32a11.6 11.6 0 0 1-.82-4.39 10.9 10.9 0 0 1 3.23-7.83 10.77 10.77 0 0 1 3.68-2.31 13.63 13.63 0 0 1 9.21-.08 10.2 10.2 0 0 1 3.77 2.25L24.7 7.95a9.62 9.62 0 0 0-2.62-1.56 7.67 7.67 0 0 0-5.75-.1c-.76.3-1.44.77-1.97 1.38a6.2 6.2 0 0 0-1.09 1.94 6.69 6.69 0 0 0-.36 2.26 6.97 6.97 0 0 0 1.51 4.39c.52.63 1.2 1.14 1.97 1.47.87.38 1.81.56 2.77.55a7.32 7.32 0 0 0 3.12-.73 10.28 10.28 0 0 0 2.75-1.89l2.8 3.81a12.13 12.13 0 0 1-8.91 3.59 13.1 13.1 0 0 1-4.8-.85 10.2 10.2 0 0 1-5.98-5.83zm35.18 6.32H29.03V1.37h13.85v4.47h-8.44v3.88h6.73v4.47h-6.73v4.03h8.88zm4.84 0h-2.13V1.72h6.59c1.35-.07 2.71.14 3.98.59a5.41 5.41 0 0 1 3.23 5.26 6.13 6.13 0 0 1-1.15 3.71 5.23 5.23 0 0 1-3 2.08v.06c.23.26.42.53.59.83L61 22.7h-2.48l-4.88-8.83h-5.48zm0-10.68h5.17a4.2 4.2 0 0 0 3.13-1.2 4.37 4.37 0 0 0 1.17-3.19 4.2 4.2 0 0 0-.6-2.23 3.68 3.68 0 0 0-1.7-1.44 7.55 7.55 0 0 0-2.83-.39h-4.34zm15.38 5.61a11.18 11.18 0 0 1-1.43-5.58 10.37 10.37 0 0 1 5.41-9.27 12.03 12.03 0 0 1 11.33 0 10.2 10.2 0 0 1 3.97 3.85 10.57 10.57 0 0 1 1.43 5.42 11.2 11.2 0 0 1-1.43 5.58 10.37 10.37 0 0 1-3.97 3.97 11.7 11.7 0 0 1-11.33 0 10.54 10.54 0 0 1-3.98-3.97zM65.48 7.6a8.8 8.8 0 0 0-1.15 4.45 9.33 9.33 0 0 0 1.15 4.61 8.74 8.74 0 0 0 7.7 4.49c3.24 0 6.2-1.73 7.71-4.49a9.43 9.43 0 0 0 1.14-4.61 8.78 8.78 0 0 0-1.14-4.45 8.14 8.14 0 0 0-3.17-3.15 9.52 9.52 0 0 0-9.06 0 8.23 8.23 0 0 0-3.18 3.15zm21.98 10.03a11.48 11.48 0 0 1-1.36-5.55c-.02-1.91.45-3.79 1.39-5.47a9.93 9.93 0 0 1 3.9-3.84 11.26 11.26 0 0 1 5.63-1.4c1.46 0 2.91.22 4.29.67a9.42 9.42 0 0 1 3.57 2.04l-1.15 1.51a11.18 11.18 0 0 0-6.65-2.29 9.23 9.23 0 0 0-4.6 1.16 8.1 8.1 0 0 0-3.09 3.14 9.34 9.34 0 0 0-1.07 4.45 9.72 9.72 0 0 0 1.07 4.54 8.16 8.16 0 0 0 3.12 3.29 8.84 8.84 0 0 0 4.66 1.23 10.4 10.4 0 0 0 7.02-2.77l1.24 1.46a11.68 11.68 0 0 1-8.32 3.26c-2.02.03-4.02-.47-5.76-1.47a10.2 10.2 0 0 1-3.89-3.96zm22.85-4.96h3.65l6.25 10.03h2.49l-6.94-11.02v-.06l6.52-9.9h-2.45l-5.87 9.1h-3.65v-9.1h-2.13V22.7h2.13z"/></svg>