<svg xmlns="http://www.w3.org/2000/svg" width="110" height="37" viewBox="0 0 110 37"><path fill="#fff" d="M1.84.62C1.16.62.61 1.17.61 1.85v33.06c0 .68.55 1.23 1.23 1.23h106.11c.67 0 1.22-.56 1.22-1.23V1.85c0-.68-.54-1.23-1.22-1.23zm0-.62h106.11c1.02 0 1.84.83 1.84 1.85v33.06c0 1.02-.83 1.85-1.84 1.85H1.84A1.84 1.84 0 0 1 0 34.91V1.85C0 .83.83 0 1.84 0zm72.8 26.65c-.18.1-.36.22-.54.3-.54.26-1.09.32-1.58.32a3.4 3.4 0 0 1-2.17-.65 4.37 4.37 0 0 1-1.66-3.52 3.74 3.74 0 0 1 3.73-3.85c.59 0 1.19.15 1.68.47.81.55 1.02 1.27 1.14 1.65l-3.83 1.58-1.25.1c.41 2.12 1.81 3.35 3.35 3.35.77 0 1.35-.25 1.87-.52 0 0 .11-.06.03.02zm-1.06-5.41c0-.67-.74-1.44-1.62-1.44-.65 0-1.87.52-1.87 2.32 0 .28.04.58.05.88l2.97-1.32c.31-.11.47-.21.47-.44zm-6.33 4.97c.28.03.56.04.83.08l-.6.36h-2.86c.37-.49.44-.54.44-.88v-.37l-.01-9.87h-1.26l1.21-.6h2.33c-.51.3-.66.48-.72 1.06l-.01 9.42c0 .65.12.75.65.8zm-3.8-4.05c0 1.26-.72 1.85-1.44 2.41-.23.22-.49.46-.49.84 0 .37.26.58.45.73l.62.47c.76.63 1.45 1.21 1.45 2.38 0 1.6-1.57 3.21-4.53 3.21-2.49 0-3.7-1.17-3.7-2.43 0-.61.31-1.48 1.33-2.07 1.07-.64 2.51-.73 3.29-.78-.25-.31-.52-.63-.52-1.16 0-.29.09-.46.17-.66-.19.02-.38.04-.55.04-1.82 0-2.86-1.35-2.86-2.68a3 3 0 0 1 1.11-2.27c.98-.8 2.15-.94 3.08-.94h3.54l-1.1.62h-1.07c.39.32 1.22 1 1.22 2.29zm-2.84 5.23c-.15 0-1.08.04-1.8.28-.38.13-1.48.54-1.48 1.75 0 1.2 1.19 2.07 3.03 2.07 1.65 0 2.52-.78 2.52-1.83 0-.87-.56-1.33-1.87-2.25-.14-.02-.22-.02-.4-.02zm1.33-4.45c0-1.22-.74-3.13-2.17-3.13-.45 0-.93.23-1.2.57-.29.35-.38.81-.38 1.25 0 1.14.67 3.03 2.15 3.03.43 0 .89-.21 1.17-.48.39-.39.43-.93.43-1.24zm-14.1.38a4.05 4.05 0 0 1 4.15-4.07c2.35 0 3.82 1.93 3.82 3.95a4 4 0 0 1-4.06 4.07 3.86 3.86 0 0 1-3.91-3.95zm6.39.74c0-1.48-.67-4.29-2.66-4.29-.53 0-1.06.22-1.44.57-.63.59-.74 1.32-.74 2.04 0 1.66.78 4.39 2.72 4.39.63 0 1.27-.32 1.64-.85.39-.54.48-1.21.48-1.86zm-14.98-.74a4.06 4.06 0 0 1 4.15-4.07c2.35 0 3.83 1.93 3.83 3.95a4 4 0 0 1-4.07 4.07 3.86 3.86 0 0 1-3.91-3.95zm6.39.74c0-1.48-.67-4.29-2.65-4.29-.53 0-1.06.22-1.45.57-.62.59-.73 1.32-.73 2.04 0 1.66.78 4.39 2.72 4.39.63 0 1.26-.32 1.63-.85.39-.54.48-1.21.48-1.86zm-10.36 3.55c-.88.15-1.67.28-2.51.28-4.19 0-5.78-3.24-5.78-5.77a5.86 5.86 0 0 1 6.13-5.95c.82 0 1.61.12 2.33.33 1.14.34 1.67.75 2 .99l-1.26 1.26-.53.12.38-.63c-.52-.53-1.46-1.5-3.25-1.5-2.4 0-4.21 1.91-4.21 4.7 0 2.99 2.07 5.81 5.38 5.81.97 0 1.47-.21 1.93-.4v-2.56l-2.3.13 1.22-.69h3.22l-.4.4c-.1.09-.12.12-.15.25l-.03.77v1.94zm44.03 2.74h-.8v-10.9h.8v1.24a3.18 3.18 0 0 1 2.6-1.44c2 0 3.34 1.6 3.34 4.14 0 2.51-1.34 4.15-3.34 4.15a3.16 3.16 0 0 1-2.6-1.47zm2.46-10.33c-1.03 0-2.03.86-2.46 1.61v3.49c.43.76 1.43 1.65 2.46 1.65 1.68 0 2.62-1.47 2.62-3.38s-.94-3.37-2.62-3.37zm5.32-3.85h.62v11.1h-.62zm11.29 13.42c.5 0 .85-.22 1.16-.97l.6-1.41-3.23-7.96h.91l2.77 6.9 2.75-6.9h.93l-3.94 9.63c-.41 1-1.06 1.47-1.94 1.47-.27 0-.61-.05-.82-.11l.14-.79c.18.08.48.14.67.14zm-3.2-3.17c-.03-.2-.04-.4-.04-.6-.29.42-.71.76-1.24 1.04-.53.27-1.03.41-1.72.41-.84 0-1.48-.2-1.94-.6a2.08 2.08 0 0 1-.69-1.64c0-.69.33-1.25 1-1.68a4.72 4.72 0 0 1 2.6-.64h1.99v-.96c0-.55-.2-.98-.58-1.3a2.56 2.56 0 0 0-1.64-.47 2.6 2.6 0 0 0-1.56.43c-.39.29-.59.64-.59 1.08h-.88l-.01-.05c-.04-.58.24-1.09.82-1.53a3.66 3.66 0 0 1 2.27-.66c.93 0 1.69.22 2.25.65.57.43.86 1.06.86 1.87v3.79c0 .28.01.54.04.8.04.25.1.51.17.76h-.98l-.13-.7zm-1.12-.38a2.4 2.4 0 0 0 1.08-1.2v-1.48h-2c-.77 0-1.4.17-1.9.5-.5.33-.75.73-.75 1.2 0 .43.16.79.48 1.05.32.27.75.4 1.31.4a3.2 3.2 0 0 0 1.78-.47zM29.74 5.68c1.02 0 1.69.5 2.11 1.11l-.75.44c-.28-.4-.78-.71-1.36-.71-1.04 0-1.81.8-1.81 1.94 0 1.11.77 1.93 1.81 1.93.53 0 1.01-.25 1.24-.48v-.83h-1.57v-.83h2.48v2a2.8 2.8 0 0 1-2.15.98 2.67 2.67 0 0 1-2.75-2.77 2.67 2.67 0 0 1 2.75-2.78zm3.38 0h3.68v.86h-2.74v1.43h2.68v.86h-2.68v1.55h2.74v.85h-3.68zm6.57.86h-1.66v-.86h4.29v.86h-1.66v4.69h-.97zM46 5.68h1.23v5.55H46zm3.5.86h-1.66v-.86h4.29v.86h-1.66v4.69h-.97zm9.07-.86a2.68 2.68 0 0 1 2.76 2.78c0 1.6-1.15 2.77-2.76 2.77a2.67 2.67 0 0 1-2.76-2.77c0-1.6 1.15-2.78 2.76-2.78zm0 .84c-1.09 0-1.78.83-1.78 1.94 0 1.1.69 1.94 1.78 1.94s1.79-.84 1.79-1.94c0-1.11-.7-1.94-1.79-1.94zm4.25.75v3.96h-.87V5.68h.89l2.53 3.85V5.68h.87v5.55h-.84zM7.36 30.11V14.54c0-.44.17-.73.43-.84l7.56 8.68-7.49 8.59c-.3-.08-.5-.39-.5-.86zm1.54.53l6.89-7.76L18 25.42zm9.17-11.37l-2.27 2.6-6.71-7.75zm4.12 2.36c.67.39.67 1 0 1.39l-3.6 2.07-2.35-2.72 2.44-2.75z"/></svg>