<svg xmlns="http://www.w3.org/2000/svg" width="182" height="35" viewBox="0 0 182 35"><path fill="#fff" d="M8 34.06H0V1.56h8zm4.05-9.62a18.07 18.07 0 0 1-1.22-6.7c-.01-2.26.42-4.5 1.27-6.6.81-1.98 2-3.79 3.51-5.32a15.86 15.86 0 0 1 5.45-3.53 19.6 19.6 0 0 1 13.63-.12c2.08.72 3.99 1.89 5.57 3.43l-3.71 5.99a14.17 14.17 0 0 0-3.88-2.38 11.24 11.24 0 0 0-4.32-.93c-1.44-.02-2.86.24-4.19.78a7.36 7.36 0 0 0-2.91 2.11 9.56 9.56 0 0 0-1.62 2.95 10.84 10.84 0 0 0-.53 3.44c-.01 1.22.19 2.42.57 3.58a10.2 10.2 0 0 0 1.66 3.1 7.74 7.74 0 0 0 2.92 2.24c1.29.58 2.69.87 4.1.85 1.6-.02 3.18-.4 4.61-1.11a15.04 15.04 0 0 0 4.08-2.89l4.14 5.82a17.76 17.76 0 0 1-13.19 5.46c-2.43.03-4.84-.41-7.1-1.29a15.25 15.25 0 0 1-8.84-8.88zm52.05 9.62H42.96V1.56h20.49v6.81H50.96v5.91h9.96v6.81h-9.96v6.15H64.1zm7.16 0h-3.15V2.09h9.74c2.01-.1 4.02.21 5.9.91a8.05 8.05 0 0 1 3.5 3.11 9.07 9.07 0 0 1 1.27 4.9 9.54 9.54 0 0 1-1.69 5.66 7.8 7.8 0 0 1-4.44 3.16v.09c.33.39.62.82.88 1.26l6.99 12.88h-3.67l-7.22-13.45h-8.11zm0-29.15v12.88h7.65a6.06 6.06 0 0 0 4.63-1.84 6.71 6.71 0 0 0 1.73-4.85 6.33 6.33 0 0 0-.89-3.39 5.35 5.35 0 0 0-2.5-2.2 11.12 11.12 0 0 0-4.2-.6zm22.76 21.42a17.38 17.38 0 0 1-2.12-8.5c-.03-2.89.7-5.73 2.12-8.25a15.59 15.59 0 0 1 5.89-5.87 17.39 17.39 0 0 1 16.76 0 15.42 15.42 0 0 1 5.88 5.87 16.36 16.36 0 0 1 2.11 8.25c.04 2.97-.69 5.89-2.11 8.5a15.57 15.57 0 0 1-5.88 6.06 16.93 16.93 0 0 1-16.76 0 15.8 15.8 0 0 1-5.89-6.06zm2.87-15.28a13.63 13.63 0 0 0-1.7 6.78 14.6 14.6 0 0 0 1.7 7.03 12.88 12.88 0 0 0 11.4 6.83 12.9 12.9 0 0 0 11.4-6.83 14.71 14.71 0 0 0 1.69-7.03c.03-2.37-.55-4.7-1.69-6.78-1.09-2-2.71-3.66-4.69-4.8a13.79 13.79 0 0 0-13.41 0 12.39 12.39 0 0 0-4.7 4.8zm32.53 15.28a17.65 17.65 0 0 1-2.02-8.45c-.04-2.91.67-5.77 2.06-8.33a14.95 14.95 0 0 1 5.76-5.86 16.45 16.45 0 0 1 8.34-2.13c2.16 0 4.3.34 6.35 1.02 1.97.63 3.77 1.7 5.27 3.11L153.49 8c-1.34-1.13-2.88-2-4.54-2.56-1.7-.61-3.49-.92-5.3-.93-2.39-.04-4.74.57-6.81 1.77a11.94 11.94 0 0 0-4.57 4.78 14.34 14.34 0 0 0-1.58 6.77c-.03 2.4.51 4.77 1.58 6.93a12.36 12.36 0 0 0 4.62 5 12.77 12.77 0 0 0 6.89 1.88 15.15 15.15 0 0 0 10.39-4.22l1.84 2.22a16.97 16.97 0 0 1-12.32 4.97c-2.99.05-5.94-.72-8.52-2.24a15.12 15.12 0 0 1-5.75-6.04zm33.8-7.55h5.41l9.24 15.28h3.69l-10.28-16.78v-.09l9.66-15.1h-3.62l-8.69 13.88h-5.41V2.09h-3.15v31.97h3.15z"/></svg>