<?xml version="1.0" encoding="UTF-8" standalone="no"?>
<svg width="182px" height="34px" viewBox="0 0 182 34" version="1.1" xmlns="http://www.w3.org/2000/svg" xmlns:xlink="http://www.w3.org/1999/xlink">
    <!-- Generator: Sketch 43.1 (39012) - http://www.bohemiancoding.com/sketch -->
    <title>logo</title>
    <desc>Created with Sketch.</desc>
    <defs>
        <path d="M8.4388851,33.076868 L8.4388851,0.57631165 L0.437776798,0.57631165 L0.437776798,33.076868 L8.43775723,33.076868 L8.4388851,33.076868 Z M12.4856819,23.4537544 C13.2513934,25.4436331 14.4102964,27.2611401 15.8941044,28.7991817 C17.4292747,30.3507674 19.280984,31.557963 21.3247975,32.3396449 C23.5884679,33.2168596 26.0007124,33.6538932 28.4303771,33.6269843 C33.4034936,33.7331342 38.190935,31.7502903 41.615175,28.1661558 L37.4804043,22.3501607 C36.292518,23.5314523 34.9140262,24.5069711 33.4020272,25.2363104 C31.9702976,25.9536744 30.3913999,26.333612 28.7879119,26.3466266 C27.3750489,26.3690662 25.9746612,26.0809728 24.6869773,25.5029656 C23.547843,24.9993268 22.5474531,24.2307544 21.770306,23.2621661 C21.039741,22.3288878 20.4765846,21.2774993 20.1055702,20.1541771 C19.7235253,19.0009829 19.531198,17.7941305 19.535996,16.5801019 C19.5287771,15.4121483 19.7096405,14.2505636 20.0717341,13.1393542 C20.4260763,12.0652566 20.9753813,11.0646774 21.692483,10.1871008 C22.4717158,9.25765323 23.4696344,8.53341253 24.5978756,8.07850847 C25.9266594,7.53852021 27.3524974,7.27392324 28.7879119,7.30095103 C30.2777473,7.3198188 31.7484631,7.63685877 33.1121646,8.23312363 C34.5251618,8.81202372 35.834607,9.61412894 36.989781,10.6083711 L40.6993447,4.6142324 C39.113797,3.0823842 37.2113298,1.91206602 35.1242843,1.18468872 C32.9787875,0.41171032 30.7137499,0.0173663165 28.431505,0.019472967 C26.0565371,-0.00165153089 23.7000376,0.435553442 21.4928501,1.3068123 C19.4544523,2.10013497 17.6020871,3.30144162 16.0508783,4.83607155 C14.5387384,6.36441878 13.346205,8.1750713 12.5420754,10.1635724 C11.6859465,12.2570563 11.2532579,14.4975412 11.2687104,16.757125 C11.2476052,19.0454306 11.6604554,21.3172212 12.4856819,23.4537544 L12.4856819,23.4537544 Z M64.5357449,33.076868 L64.5357449,26.2614762 L51.394934,26.2614762 L51.394934,20.1127223 L61.3619193,20.1127223 L61.3619193,13.2973306 L51.394934,13.2973306 L51.394934,7.39282381 L63.8872198,7.39282381 L63.8872198,0.57631165 L43.3960814,0.57631165 L43.3960814,33.076868 L64.5357449,33.076868 L64.5357449,33.076868 Z M71.6999738,33.076868 L71.6999738,19.624228 L79.8127412,19.624228 L87.0311079,33.076868 L90.6966847,33.076868 L83.703892,20.2012339 C83.451994,19.7545069 83.1602069,19.3311618 82.8320486,18.9363026 L82.8320486,18.8466706 C84.6466045,18.3577206 86.2225442,17.2346171 87.2702163,15.6837821 C88.4140867,14.0220104 89.0056765,12.0462584 88.9620209,10.0336061 C89.0079193,8.31206938 88.5667513,6.61226459 87.688656,5.12737549 C86.8590659,3.77056382 85.6420114,2.68948938 84.1922596,2.02162734 C82.3083889,1.3229125 80.3008217,1.01334493 78.2923727,1.11186274 L68.5475777,1.11186274 L68.5475777,33.076868 L71.6988459,33.076868 L71.6999738,33.076868 Z M71.6999738,3.92854774 L78.1141693,3.92854774 C79.540407,3.85754355 80.9670148,4.06108186 82.3154843,4.52796162 C83.3627778,4.97986498 84.2389667,5.74983679 84.8182273,6.72730635 C85.4239209,7.75646046 85.7329522,8.9312962 85.7115002,10.123238 C85.7965789,11.902885 85.1748839,13.6445741 83.9802201,14.9734486 C82.7711891,16.2171653 81.0822062,16.8844476 79.3435474,16.8053022 L71.6999738,16.8053022 L71.6999738,3.92630694 L71.6999738,3.92854774 Z M94.4626419,25.3517116 C95.833628,27.8665783 97.8696781,29.9619728 100.35125,31.4119539 C105.541042,34.3719822 111.922731,34.3719822 117.112523,31.4119539 C119.592633,29.9637565 121.625459,27.8676647 122.989853,25.3517116 C124.409965,22.7419079 125.136652,19.8154658 125.101225,16.8489978 C125.135713,13.9637806 124.407693,11.120052 122.989853,8.60173516 C121.607345,6.14793388 119.574708,4.11713392 117.112523,2.72972 C111.899205,-0.141330314 105.564568,-0.141330314 100.35125,2.72972 C97.8875447,4.11893521 95.8516896,6.14905367 94.4626419,8.60173516 C93.0376469,11.1176952 92.3054974,13.9623592 92.339991,16.8489978 C92.3044687,19.8168572 93.0352703,22.7442333 94.4626419,25.3517116 L94.4626419,25.3517116 Z M97.3240476,10.067218 C98.4187938,8.07010442 100.046014,6.41102117 102.027265,5.27190706 C106.190991,2.94830711 111.272782,2.94830711 115.436509,5.27190706 C117.415903,6.41008232 119.040066,8.06962914 120.129575,10.067218 C121.267284,12.1471915 121.849727,14.4819764 121.821379,16.8489978 C121.851357,19.2939867 121.270048,21.7081489 120.129575,23.8750247 C117.901242,28.0804492 113.510918,30.7133676 108.726811,30.7133676 C103.942705,30.7133676 99.5523799,28.0804492 97.3240476,23.8750247 C96.1778761,21.7100036 95.5940278,19.2949548 95.6254757,16.8489978 C95.5956622,14.4809756 96.1806632,12.1452792 97.3240476,10.067218 L97.3240476,10.067218 Z M129.85294,25.3517116 C131.16835,27.8561336 133.160213,29.9469285 135.605076,31.3895459 C138.18325,32.906241 141.134744,33.6819906 144.130644,33.6303455 C148.745784,33.7100366 153.193493,31.9139204 156.443598,28.6580113 L154.611938,26.4384994 C151.82318,29.1203451 148.101115,30.6311724 144.219746,30.6568045 C141.78889,30.6972621 139.397059,30.0465084 137.326205,28.7812553 C135.34679,27.574199 133.747829,25.8398781 132.710962,23.7753092 C131.637919,21.6237328 131.094055,19.2499587 131.124049,16.8489978 C131.088762,14.4972983 131.633592,12.1727758 132.710962,10.078422 C133.749096,8.0870842 135.333577,6.42841588 137.281091,5.29431505 C139.343718,4.09809663 141.697491,3.48768077 144.085529,3.52968543 C145.893145,3.53744596 147.686066,3.85272914 149.386517,4.46185803 C151.047638,5.02018372 152.586979,5.88664915 153.922809,7.01524909 L155.619126,4.71058678 C154.117937,3.29493333 152.315503,2.23273555 150.345206,1.60259783 C148.29924,0.923319936 146.155895,0.578236557 143.998683,0.580793249 C141.07849,0.538254129 138.200104,1.27329843 135.662598,2.7095528 C133.228578,4.09140267 131.231621,6.12131172 129.896927,8.57036396 C128.509352,11.1260561 127.801997,13.9914997 127.841948,16.8949342 C127.801869,19.8352606 128.492606,22.7400022 129.85294,25.3517116 L129.85294,25.3517116 Z M163.655198,33.08247 L163.655198,17.8035784 L169.063333,17.8035784 L178.311866,33.076868 L182,33.076868 L171.719467,16.2943999 L171.719467,16.204768 L181.374032,1.10962194 L177.75357,1.10962194 L169.063333,14.9846526 L163.655198,14.9846526 L163.655198,1.10962194 L160.505058,1.10962194 L160.505058,33.076868 L163.655198,33.076868 L163.655198,33.08247 Z" id="path-1"></path>
    </defs>
    <g id="Page-1" stroke="none" stroke-width="1" fill="none" fill-rule="evenodd">
        <g id="ресурсы" transform="translate(-3976.000000, -1103.000000)">
            <g id="logo" transform="translate(3976.000000, 1103.000000)">
                <g id="Rectangle-2">
                    <mask id="mask-2" fill="white">
                        <use xlink:href="#path-1"></use>
                    </mask>
                    <use id="Mask" fill="#4287E1" xlink:href="#path-1"></use>
                    <rect id="Rectangle-18" fill="#2E2E2E" mask="url(#mask-2)" x="66" y="-7" width="126" height="47"></rect>
                </g>
            </g>
        </g>
    </g>
</svg>