<svg xmlns="http://www.w3.org/2000/svg" width="20" height="25" viewBox="0 0 20 25"><defs><clipPath id="a"><path fill="#fff" d="M893 2583v-7h2v7z"/></clipPath><clipPath id="b"><path fill="#fff" d="M880 2577.67c0-.92.75-1.67 1.67-1.67h16.66c.92 0 1.67.75 1.67 1.67v4.66c0 .92-.75 1.67-1.67 1.67h-16.66c-.92 0-1.67-.75-1.67-1.67z"/></clipPath><clipPath id="c"><path fill="#fff" d="M893 2590v-7h2v7z"/></clipPath><clipPath id="d"><path fill="#fff" d="M880 2584.67c0-.92.75-1.67 1.67-1.67h16.66c.92 0 1.67.75 1.67 1.67v4.66c0 .92-.75 1.67-1.67 1.67h-16.66c-.92 0-1.67-.75-1.67-1.67z"/></clipPath><clipPath id="e"><path fill="#fff" d="M893 2596v-7h2v7z"/></clipPath><clipPath id="f"><path fill="#fff" d="M880 2590.67c0-.92.75-1.67 1.67-1.67h16.66c.92 0 1.67.75 1.67 1.67v4.66c0 .92-.75 1.67-1.67 1.67h-16.66c-.92 0-1.67-.75-1.67-1.67z"/></clipPath></defs><path fill="none" stroke="#4287e1" stroke-miterlimit="50" stroke-width="3.33" d="M893 2583v-7h2v7z" clip-path="url(&quot;#a&quot;)" transform="translate(-880 -2576)"/><path fill="#4287e1" d="M3 4a1 1 0 1 1 2 0 1 1 0 0 1-2 0z"/><path fill="none" stroke="#4287e1" stroke-miterlimit="50" stroke-width="3.33" d="M880 2577.67c0-.92.75-1.67 1.67-1.67h16.66c.92 0 1.67.75 1.67 1.67v4.66c0 .92-.75 1.67-1.67 1.67h-16.66c-.92 0-1.67-.75-1.67-1.67z" clip-path="url(&quot;#b&quot;)" transform="translate(-880 -2576)"/><path fill="none" stroke="#4287e1" stroke-miterlimit="50" stroke-width="3.33" d="M893 2590v-7h2v7z" clip-path="url(&quot;#c&quot;)" transform="translate(-880 -2576)"/><path fill="#4287e1" d="M3 11a1 1 0 1 1 2 0 1 1 0 0 1-2 0z"/><path fill="none" stroke="#4287e1" stroke-miterlimit="50" stroke-width="3.33" d="M880 2584.67c0-.92.75-1.67 1.67-1.67h16.66c.92 0 1.67.75 1.67 1.67v4.66c0 .92-.75 1.67-1.67 1.67h-16.66c-.92 0-1.67-.75-1.67-1.67z" clip-path="url(&quot;#d&quot;)" transform="translate(-880 -2576)"/><path fill="none" stroke="#4287e1" stroke-miterlimit="50" stroke-width="3.33" d="M893 2596v-7h2v7z" clip-path="url(&quot;#e&quot;)" transform="translate(-880 -2576)"/><path fill="#4287e1" d="M3 18a1 1 0 1 1 2 0 1 1 0 0 1-2 0z"/><path fill="#ff6b6b" d="M7 4a1 1 0 1 1 2 0 1 1 0 0 1-2 0zM7 11a1 1 0 1 1 2 0 1 1 0 0 1-2 0z"/><path fill="none" stroke="#4287e1" stroke-miterlimit="50" stroke-width="3.33" d="M880 2590.67c0-.92.75-1.67 1.67-1.67h16.66c.92 0 1.67.75 1.67 1.67v4.66c0 .92-.75 1.67-1.67 1.67h-16.66c-.92 0-1.67-.75-1.67-1.67z" clip-path="url(&quot;#f&quot;)" transform="translate(-880 -2576)"/><path fill="#4287e1" d="M3 24a1 1 0 0 1 1-1h11a1 1 0 0 1 0 2H4a1 1 0 0 1-1-1zM7 23v-3h2v3zM12 23v-3h2v3z"/></svg>