<svg xmlns="http://www.w3.org/2000/svg" width="110" height="36" viewBox="0 0 110 36"><path fill="#fff" d="M1.85.62C1.17.62.62 1.17.62 1.84v32c0 .67.55 1.22 1.23 1.22h106.08c.69 0 1.24-.55 1.24-1.22v-32c0-.68-.56-1.22-1.24-1.22zm0-.62h106.08c1.02 0 1.86.82 1.86 1.84v32c0 1.01-.84 1.84-1.86 1.84H1.85A1.85 1.85 0 0 1 0 33.84v-32C0 .83.83 0 1.85 0zm30.09 10.83h-2.36l-.69 2.09H28l2.26-6.64h1.04l2.27 6.64h-.92zm-2.18-.67h2l-.66-1.91a13.9 13.9 0 0 1-.33-1.21h-.03c-.09.39-.2.8-.33 1.2zm4.92-2.01l.94 2.67c.16.44.28.84.38 1.23h.03c.11-.39.25-.79.41-1.23l.93-2.67h.9l-1.87 4.77h-.83l-1.82-4.77zm7.78 1.84v1.79c0 .41.02.81.06 1.14h-.78l-.07-.6h-.03c-.26.37-.78.71-1.46.71-.97 0-1.46-.68-1.46-1.37 0-1.15 1.02-1.78 2.87-1.77v-.1c0-.4-.11-1.11-1.09-1.1-.45 0-.92.12-1.25.35l-.2-.58c.4-.25.98-.41 1.58-.41 1.47 0 1.83.99 1.83 1.94zm-.85 1.32v-.82c-.95-.02-2.03.14-2.03 1.07 0 .57.38.83.81.83.63 0 1.04-.4 1.18-.8a.9.9 0 0 0 .04-.28zm2.27 1.61V8.15h.87v4.77zm.42-5.57a.51.51 0 0 1-.52-.53c0-.31.21-.55.54-.55.31 0 .53.24.53.55 0 .28-.21.53-.54.53zm1.93-1.42h.87v6.99h-.87zm5.73 4.06v1.79c0 .41.02.81.07 1.14h-.78l-.08-.6h-.03c-.25.37-.78.71-1.46.71-.96 0-1.46-.68-1.46-1.37 0-1.15 1.03-1.78 2.87-1.77v-.1c0-.4-.1-1.11-1.08-1.1-.46 0-.92.12-1.25.35l-.2-.58c.39-.25.98-.41 1.58-.41 1.47 0 1.82.99 1.82 1.94zm-.85 1.32v-.82c-.94-.02-2.02.14-2.02 1.07 0 .57.38.83.81.83.63 0 1.04-.4 1.17-.8a.9.9 0 0 0 .04-.28zm2.28.38V5.93h.87v2.98h.02c.31-.53.86-.86 1.63-.86 1.18 0 2.01.98 2.01 2.42 0 1.71-1.08 2.56-2.15 2.56-.69 0-1.23-.27-1.6-.9h-.02l-.05.79h-.75c.03-.33.04-.81.04-1.23zm.87-1.54v.86c0 .11.01.22.03.31.17.6.68 1.02 1.3 1.02.92 0 1.45-.74 1.45-1.83 0-.97-.49-1.78-1.42-1.78-.59 0-1.14.41-1.31 1.06a1.3 1.3 0 0 0-.05.36zm4.78-4.22h.87v6.99h-.87zm6.21 4.76H61.9c.02 1.17.76 1.65 1.63 1.65.62 0 1.01-.11 1.33-.25l.15.62c-.3.14-.84.31-1.6.31-1.46 0-2.34-.98-2.34-2.41 0-1.43.85-2.56 2.25-2.56 1.55 0 1.96 1.36 1.96 2.24 0 .18-.01.31-.03.4zm-3.34-.62h2.53c.01-.55-.23-1.4-1.19-1.4-.89 0-1.27.8-1.34 1.4zm8.57 2.96h-.01c-1.29 0-2.29-.95-2.29-2.45 0-1.6 1.05-2.53 2.37-2.53 1.37 0 2.29.99 2.29 2.44 0 1.77-1.23 2.54-2.36 2.54zm.02-.65h.01c.82 0 1.45-.78 1.45-1.86 0-.81-.41-1.82-1.43-1.82s-1.47.94-1.47 1.85c0 1.04.6 1.83 1.44 1.83zm3.48-2.94c0-.5-.01-.89-.04-1.29h.77l.05.78h.02c.23-.44.79-.88 1.58-.88.66 0 1.68.39 1.68 2.02v2.85h-.87v-2.75c0-.77-.28-1.42-1.1-1.42-.56 0-1.01.41-1.16.89-.04.11-.06.27-.06.4v2.88h-.87zm8.69-2.43v1.14h1.24v.66h-1.24v2.56c0 .59.17.93.65.93.24 0 .37-.02.5-.06l.04.66c-.17.06-.43.12-.77.12-.4 0-.73-.14-.94-.37-.23-.26-.33-.69-.33-1.25V8.81h-.74v-.66h.74v-.87zm2.26-1.08h.86V8.9h.02c.14-.24.36-.47.63-.61.25-.16.56-.24.88-.24.65 0 1.67.39 1.67 2.03v2.84h-.87v-2.75c0-.77-.28-1.41-1.1-1.41a1.28 1.28 0 0 0-1.23 1.28v2.88h-.86zm9.35 4.76h-3.35c.02 1.17.76 1.65 1.63 1.65.62 0 1.01-.11 1.32-.25l.16.62c-.3.14-.84.31-1.6.31-1.46 0-2.35-.98-2.35-2.41 0-1.43.86-2.56 2.25-2.56 1.56 0 1.97 1.36 1.97 2.24 0 .18-.01.31-.03.4zm-3.34-.62h2.53c.01-.55-.23-1.4-1.19-1.4-.89 0-1.27.8-1.34 1.4zm-57.1 13.96h-4.12l-1.21 3.65h-1.56l3.96-11.61h1.81l3.97 11.61h-1.6zm-3.81-1.17h3.5l-1.15-3.34c-.25-.76-.42-1.45-.59-2.12h-.05c-.16.67-.35 1.39-.57 2.1zm8.05 8.23v-9.02c0-1.07-.01-1.93-.07-2.72h1.37l.08 1.42h.04a3.21 3.21 0 0 1 2.95-1.61c2.04 0 3.56 1.7 3.56 4.23 0 3-1.85 4.48-3.8 4.48a2.9 2.9 0 0 1-2.57-1.31h-.04v4.53zm1.52-8.25v1.45a2.32 2.32 0 0 0 2.33 2.39c1.61 0 2.54-1.31 2.54-3.22 0-1.67-.86-3.1-2.47-3.1-1.03 0-2.02.72-2.31 1.88-.04.19-.09.41-.09.6zm8.04 8.25v-9.02c0-1.07-.02-1.93-.07-2.72h1.37l.08 1.42h.04a3.21 3.21 0 0 1 2.95-1.61c2.04 0 3.56 1.7 3.56 4.23 0 3-1.85 4.48-3.8 4.48a2.93 2.93 0 0 1-2.58-1.31h-.03v4.53zm1.52-8.25v1.45a2.32 2.32 0 0 0 2.33 2.39c1.61 0 2.54-1.31 2.54-3.22 0-1.67-.86-3.1-2.47-3.1a2.4 2.4 0 0 0-2.31 1.88c-.04.19-.09.41-.09.6zm11.29 3.02c.68.41 1.64.74 2.68.74 1.54 0 2.43-.8 2.43-1.97 0-1.08-.62-1.72-2.19-2.31-1.9-.65-3.07-1.65-3.07-3.27 0-1.81 1.5-3.15 3.76-3.15 1.18 0 2.06.28 2.56.55l-.42 1.24a4.35 4.35 0 0 0-2.19-.55c-1.59 0-2.19.95-2.19 1.74 0 1.07.7 1.6 2.31 2.22 1.97.78 2.95 1.71 2.95 3.41 0 1.78-1.31 3.34-4.06 3.34a6.1 6.1 0 0 1-2.97-.75zm10.22-8.51v2h2.17v1.15h-2.17v4.48c0 1.03.29 1.62 1.14 1.62.41 0 .65-.04.88-.11l.07 1.16c-.3.1-.76.2-1.35.2-.71 0-1.28-.24-1.64-.63-.42-.47-.59-1.21-.59-2.19V20.5h-1.29v-1.15h1.29v-1.54zm6.93 10.52h-.02c-2.24 0-4.01-1.65-4.01-4.29 0-2.79 1.85-4.42 4.15-4.42 2.4 0 4.02 1.74 4.02 4.27 0 3.1-2.16 4.44-4.14 4.44zm.03-1.14h.02c1.45 0 2.54-1.36 2.54-3.25 0-1.41-.71-3.19-2.51-3.19-1.77 0-2.55 1.66-2.55 3.24 0 1.83 1.03 3.2 2.5 3.2zm5.76-4.78c0-.99-.02-1.83-.07-2.6h1.33l.07 1.63h.05c.38-1.12 1.31-1.82 2.33-1.82.16 0 .28.01.42.03v1.43a3.94 3.94 0 0 0-.52-.03c-1.07 0-1.83.8-2.04 1.92-.03.23-.05.47-.05.71v4.46h-1.52zm11.92 1.84h-5.85c.03 2.03 1.33 2.88 2.85 2.88 1.09 0 1.76-.19 2.31-.44l.28 1.09c-.54.24-1.47.53-2.8.53-2.55 0-4.11-1.7-4.11-4.2 0-2.51 1.5-4.49 3.94-4.49 2.73 0 3.44 2.39 3.44 3.92 0 .31-.02.54-.06.71zm-5.83-1.09h4.42c.02-.96-.4-2.46-2.09-2.46-1.56 0-2.21 1.41-2.33 2.46zM11.02 5.54h8.8c.98 0 1.77.91 1.77 2.04v21.13c0 1.13-.79 2.05-1.77 2.05h-8.8c-.98 0-1.77-.92-1.77-2.05V7.58c0-1.13.79-2.04 1.77-2.04zm-.61 21.91h10.02V8.84H10.41zm5.78 1.65c0-.45-.34-.82-.77-.82s-.77.37-.77.82c0 .46.34.83.77.83s.77-.37.77-.83zM13.88 7.19c0 .23.13.41.3.41h2.47c.17 0 .31-.19.31-.41 0-.23-.13-.41-.31-.41h-2.47c-.16 0-.3.19-.3.41z"/></svg>