<svg width="159" height="68" viewBox="0 0 159 68" xmlns="http://www.w3.org/2000/svg"><title>СТРЕЛКИ</title><g fill="#4287E1"><path d="M58.5 67.433v-5h-1v5h1zm0-10v-5h-1v5h1zm0-10v-5h-1v5h1zm-4.763-6.238h-5v1h5v-1zm-10 0h-5v1h5v-1zm-10 0h-5v1h5v-1zm-10 0h-5v1h5v-1zm-10 0h-5v1h5v-1zm-12.61-1.389h-1v2.39h3.61v-1h-2.61v-1.39zm0-5v-5h-1v5h1zm0-10v-5h-1v5h1zm0-10v-5h-1v5h1zm0-10V0h-1v4.806h1zM157.5 0v5h1V0h-1zm0 10v5h1v-5h-1zm0 10v5h1v-5h-1zm0 10v5h1v-5h-1zm-3.763 10.237v1h4.763V40h-1v.237h-3.763zm-5 0h-5v1h5v-1zm-10 0h-5v1h5v-1zm-10 0h-5v1h5v-1zm-10 0h-5v1h5v-1zm-10 0h-5v1h5v-1zm-8.61 2.39v5h1v-5h-1zm0 10v5h1v-5h-1zm0 10v5h1v-5h-1zm-27.463-5.029l-.7.715 7.768 7.596 7.621-7.6-.706-.707-6.922 6.901z"/><path d="M72.664 50.12l-.7.715 7.768 7.596 7.621-7.6-.706-.707-6.922 6.902z"/><path d="M72.664 42.643l-.7.714 7.768 7.596 7.621-7.599-.706-.708-6.922 6.902z"/></g></svg>