<svg xmlns="http://www.w3.org/2000/svg" width="278.53" height="224" viewBox="0 0 278.53 224"><path fill="#4287e1" d="M269.43 139h-5v-1h5zm-10 0h-5v-1h5zm-10 0h-5v-1h5zm-10 0h-5v-1h5zm-10 0h-5v-1h5zm-10 0h-5v-1h5zm-10 0h-5v-1h5zm-10 0h-5v-1h5zm-10 0h-5v-1h5zm-10 0h-5v-1h5zm-10 0h-5v-1h5zm-10 0h-5v-1h5zm-10 0h-5v-1h5zm-13.23 0v.76h-1V138h4.23v1zm0 5.76v5h-1v-5zm0 10v5h-1v-5zm0 10v5h-1v-5zm0 10v5h-1v-5zm0 10v5h-1v-5zm0 10v5h-1v-5zm0 10v5h-1v-5zm0 10v5h-1v-5zm-2.39 8.61h-5v-1h5zm-10 0h-5v-1h5zm-10 0h-5v-1h5zm-10 0h-5v-1h5zm-10 0h-5v-1h5zm-10 0h-5v-1h5zm-10 0h-5v-1h5zm-10 0h-5v-1h5zm-10 0h-5v-1h5zm-10 0h-5v-1h5zm-10 0h-5v-1h5zm-10 0h-5v-1h5zm-10 0h-5v-1h5zm-10-1H0v1h3.81zm265.62-138h-5v1h5zm-10 0h-5v1h5zm-10 0h-5v1h5zm-10 0h-5v1h5zm-10 0h-5v1h5zm-10 0h-5v1h5zm-10 0h-5v1h5zm-10 0h-5v1h5zm-10 0h-5v1h5zm-10 0h-5v1h5zm-10 0h-5v1h5zm-10 0h-5v1h5zm-10 0h-5v1h5zm-13.23-.76h-1v1.76h4.23v-1h-3.23zm0-5v-5h-1v5zm0-10v-5h-1v5zm0-10v-5h-1v5zm0-10v-5h-1v5zm0-10v-5h-1v5zm0-10v-5h-1v5zm0-10v-5h-1v5zm0-10v-5h-1v5zM133.81 0h-5v1h5zm-10 0h-5v1h5zm-10 0h-5v1h5zm-10 0h-5v1h5zm-10 0h-5v1h5zm-10 0h-5v1h5zm-10 0h-5v1h5zm-10 0h-5v1h5zm-10 0h-5v1h5zm-10 0h-5v1h5zm-10 0h-5v1h5zm-10 0h-5v1h5zm-10 0h-5v1h5zm-10 1H0V0h3.81z"/><path fill="none" stroke="#4287e1" stroke-miterlimit="50" d="M263 99l14.22 14.06L263 127.39"/><path fill="none" stroke="#4287e1" stroke-miterlimit="50" d="M249 99l14.22 14.06L249 127.39M234 99l14.22 14.06L234 127.39"/></svg>