<svg width="182" height="34" viewBox="0 0 182 34" xmlns="http://www.w3.org/2000/svg" xmlns:xlink="http://www.w3.org/1999/xlink"><title>logo</title><defs><path d="M8.439 33.077V.577H.438v32.5h8zm4.047-9.623a15.95 15.95 0 0 0 3.408 5.345 15.355 15.355 0 0 0 5.43 3.54 19.082 19.082 0 0 0 7.106 1.288 17.713 17.713 0 0 0 13.185-5.46L37.48 22.35a15.066 15.066 0 0 1-4.078 2.886 10.491 10.491 0 0 1-4.614 1.11 9.642 9.642 0 0 1-4.101-.843 7.763 7.763 0 0 1-2.917-2.24 10.265 10.265 0 0 1-1.664-3.109 11.223 11.223 0 0 1-.57-3.574c-.007-1.168.174-2.33.536-3.44a9.242 9.242 0 0 1 1.62-2.953 7.403 7.403 0 0 1 2.906-2.108 10.6 10.6 0 0 1 4.19-.778c1.49.019 2.96.336 4.324.932a14.191 14.191 0 0 1 3.878 2.375l3.71-5.994a15.243 15.243 0 0 0-5.576-3.43A19.693 19.693 0 0 0 28.432.02a18.453 18.453 0 0 0-6.94 1.288 15.976 15.976 0 0 0-5.441 3.53 16.223 16.223 0 0 0-3.509 5.327 17.108 17.108 0 0 0-1.273 6.593 18.12 18.12 0 0 0 1.217 6.697zm52.05 9.623V26.26H51.395v-6.148h9.967v-6.816h-9.967V7.393h12.492V.576h-20.49v32.5h21.139zm7.164 0V19.624h8.113l7.218 13.453h3.666L83.704 20.2a8.548 8.548 0 0 0-.872-1.265v-.09a7.804 7.804 0 0 0 4.438-3.162 9.596 9.596 0 0 0 1.692-5.65 9.158 9.158 0 0 0-1.273-4.907 8.039 8.039 0 0 0-3.497-3.105 14.873 14.873 0 0 0-5.9-.91h-9.744v31.965H71.7zm0-29.148h6.414a11.148 11.148 0 0 1 4.201.599 5.39 5.39 0 0 1 2.503 2.2 6.465 6.465 0 0 1 .894 3.395 6.77 6.77 0 0 1-1.732 4.85 6.081 6.081 0 0 1-4.636 1.832H71.7V3.926v.003zm22.763 21.423a15.758 15.758 0 0 0 5.888 6.06 16.929 16.929 0 0 0 16.762 0 15.673 15.673 0 0 0 5.877-6.06 17.353 17.353 0 0 0 2.111-8.503 16.409 16.409 0 0 0-2.111-8.247 15.446 15.446 0 0 0-5.877-5.872 17.385 17.385 0 0 0-16.762 0 15.53 15.53 0 0 0-5.888 5.872 16.336 16.336 0 0 0-2.123 8.247 17.275 17.275 0 0 0 2.123 8.503zm2.861-15.285a12.421 12.421 0 0 1 4.703-4.795 13.769 13.769 0 0 1 13.41 0 12.362 12.362 0 0 1 4.693 4.795 13.786 13.786 0 0 1 1.691 6.782c.03 2.445-.551 4.86-1.691 7.026-2.229 4.205-6.62 6.838-11.403 6.838-4.784 0-9.175-2.633-11.403-6.838a14.613 14.613 0 0 1-1.699-7.026 13.708 13.708 0 0 1 1.699-6.782zm32.529 15.285a15.245 15.245 0 0 0 5.752 6.038 16.264 16.264 0 0 0 8.526 2.24 16.984 16.984 0 0 0 12.313-4.972l-1.832-2.22a15.138 15.138 0 0 1-10.392 4.219c-2.431.04-4.823-.61-6.894-1.876a12.367 12.367 0 0 1-4.615-5.006 15.095 15.095 0 0 1-1.587-6.926 14.33 14.33 0 0 1 1.587-6.77 11.91 11.91 0 0 1 4.57-4.785 13.106 13.106 0 0 1 6.805-1.764c1.807.007 3.6.323 5.3.932a13.881 13.881 0 0 1 4.537 2.553l1.696-2.304a13.824 13.824 0 0 0-5.274-3.108A20.068 20.068 0 0 0 144 .58a16.44 16.44 0 0 0-8.336 2.129 14.993 14.993 0 0 0-5.766 5.86 16.955 16.955 0 0 0-2.055 8.325 17.78 17.78 0 0 0 2.01 8.457zm33.802 7.73V17.804h5.408l9.249 15.273H182l-10.28-16.783v-.09l9.654-15.094h-3.62l-8.69 13.875h-5.409V1.11h-3.15v31.967h3.15v.005z" id="a"/></defs><g fill="none" fill-rule="evenodd"><mask id="b" fill="#fff"><use xlink:href="#a"/></mask><use fill="#4287E1" xlink:href="#a"/><path fill="#2E2E2E" mask="url(#b)" d="M66-7h126v47H66z"/></g></svg>